# xmcd
#
# Track frame offsets:
#	150
#	33327
#	64897
#	85350
#	111025
#	149717
#	176410
#	202687
#	226182
#	251770
#	273252
#	301105
#
# Disc length: 4445 seconds
#
# Revision: 1
# Processed by: cddbd v1.4PL0 Copyright (c) Steve Scherf et al.
# Submitted via: audiograbber 1.81.03
#
DISCID=9e115b0c
DTITLE=Various Artist - Something For The Weekend
DYEAR=2000
DGENRE=Soul
TTITLE0=Maze - Joy and Pain
TTITLE1=Mystic Merlin - Just Can't Give You Up
TTITLE2=McCrary's - Love On A Summer Night
TTITLE3=Lanier and Co - Dancing In  The Night
TTITLE4=Dayton - The Sound Of Music
TTITLE5=BB&Q - On The Beat
TTITLE6=Full Circle - Working Up A Sweat
TTITLE7=Melissa Morgan - Fools paradise
TTITLE8=Melba Moore - Love's Coming At Ya
TTITLE9=Paul Lawrence - There Ain't Nothing (like Your Lovin')
TTITLE10=Ashford and Simpson - Solid
TTITLE11=Freddie Jackson - Rock Me Tonight (For Old Times Sake)
EXTD=
EXTT0=
EXTT1=
EXTT2=
EXTT3=
EXTT4=
EXTT5=
EXTT6=
EXTT7=
EXTT8=
EXTT9=
EXTT10=
EXTT11=
PLAYORDER=
